<?xml version="1.0" encoding="UTF-8" standalone="no"?>
<svg
   xmlns:dc="http://purl.org/dc/elements/1.1/"
   xmlns:cc="http://creativecommons.org/ns#"
   xmlns:rdf="http://www.w3.org/1999/02/22-rdf-syntax-ns#"
   xmlns:svg="http://www.w3.org/2000/svg"
   xmlns="http://www.w3.org/2000/svg"
   xmlns:sodipodi="http://sodipodi.sourceforge.net/DTD/sodipodi-0.dtd"
   xmlns:inkscape="http://www.inkscape.org/namespaces/inkscape"
   xml:space="preserve"
   style="enable-background:new 0 0 1600 150;"
   width="300px"
   height="45px"
   viewBox="0 0 1600 150"
   y="100px"
   x="0px"
   id="Слой_1"
   version="1.1"
   sodipodi:docname="logo.svg"
   inkscape:version="0.92.4 5da689c313, 2019-01-14"><sodipodi:namedview
   pagecolor="#ffffff"
   bordercolor="#666666"
   borderopacity="1"
   objecttolerance="10"
   gridtolerance="10"
   guidetolerance="10"
   inkscape:pageopacity="0"
   inkscape:pageshadow="2"
   inkscape:window-width="1920"
   inkscape:window-height="984"
   id="namedview9"
   showgrid="false"
   inkscape:zoom="1.1133333"
   inkscape:cx="150"
   inkscape:cy="100"
   inkscape:window-x="0"
   inkscape:window-y="34"
   inkscape:window-maximized="1"
   inkscape:current-layer="Слой_1" /><metadata
   id="metadata76"><rdf:RDF><cc:Work
       rdf:about=""><dc:format>image/svg+xml</dc:format><dc:type
         rdf:resource="http://purl.org/dc/dcmitype/StillImage" /><dc:title /></cc:Work></rdf:RDF></metadata><defs
   id="defs74" />
<style
   id="style63"
   type="text/css">
	.st0{fill:#DD2A1B;stroke:#141515;stroke-width:8.5039;stroke-miterlimit:10;}
	.st1{fill:#FAE013;stroke:#141515;stroke-width:8.5039;stroke-miterlimit:10;}
</style>
<g
   id="g69"
   transform="matrix(0.77327675,0,0,0.62088722,269.82138,-149.72306)">
	<path
   id="path65"
   d="m -64.8,231.6 -16.6,65.8 h -141.7 l -8.3,33.3 h 96.8 c 30.2,0 45.2,11.6 45.2,34.7 0,5.7 -3.7,23 -11,52 -6.6,26 -15.7,43.9 -27.3,54 -11.5,10 -29.8,15.1 -54.9,15.1 h -161.3 l 17.3,-69 h 153 l 8.3,-32.9 h -96.8 c -19.3,0 -32.3,-3.1 -38.9,-9.2 -4.9,-4.5 -7.3,-11.6 -7.3,-21.2 0,-5.9 4,-24.8 12,-56.6 6.2,-24.5 15.3,-41.6 27.3,-51.3 12,-9.7 30,-14.5 54.2,-14.5 h 150 z m 216.9,54.9 -50.2,200 H 35.4 l 4.8,-19 c -14.2,12.7 -30.5,19 -49,19 h -40.6 c -21.3,0 -32,-11.5 -32,-34.3 0,-8.5 1.3,-18.1 4,-28.7 l 18.3,-73.3 h -13.7 l 16,-63.7 h 40.3 c 20.8,0 31.3,9.4 31.3,28.4 0,5.7 -0.8,12 -2.3,19.1 L -10,422.4 H 51.2 L 85.7,286.5 Z m 210.2,35.7 c 0,6.6 -1,13.9 -3,21.9 L 338,428.7 c -9.8,38.4 -30.5,57.7 -62.2,57.7 h -42.9 c -15.1,0 -24.9,-6 -29.3,-18.1 L 183,550.1 H 115.8 L 166,350.5 h -11.3 l 16,-64.1 H 212 c 9.8,0 16.8,1.6 21.3,4.6 5.3,3.8 8.5,10.6 9.6,20.5 9.3,-16.8 23.4,-25.1 42.2,-25.1 H 326 c 24.3,0.1 36.3,12 36.3,35.8 z m -72.4,28.3 h -56.7 l -18.1,71.8 h 56.7 z m 285.7,-31.1 c 0,8.3 -1.3,17.7 -4,28.3 L 558,402.6 H 436.3 l -5,19.8 h 97.3 l -16,64.1 H 396.3 c -24.8,0 -37.2,-11.6 -37.2,-34.7 0,-6.8 1.1,-14.6 3.3,-23.4 l 20.3,-80.7 c 4.4,-17.9 12.3,-32.4 23.6,-43.5 12.2,-11.8 26.6,-17.7 43.2,-17.7 h 95.2 c 20.5,0 30.9,10.9 30.9,32.9 z m -67,31.1 h -59.1 l -5.2,20.5 h 59.2 z m 265.6,-39.6 c 0,5.7 -1.1,12.8 -3.3,21.6 l -16.3,63.7 H 690 l 11.7,-45.6 h -38.9 l -34.5,135.9 h -66.8 l 50.2,-200 h 66.9 l -3.7,15.6 c 6.9,-10.4 18.2,-15.6 33.9,-15.6 h 35.6 c 19.9,0 29.8,8.1 29.8,24.4 z"
   class="st0"
   inkscape:connector-curvature="0"
   style="fill:#dd2a1b;stroke:#141515;stroke-width:8.50389957;stroke-miterlimit:10" />
	<path
   id="path67"
   d="m 1034.6,267.4 c 0,8 -1.6,18.8 -5,32.2 -2.6,10.4 -5.3,20.8 -8,31.2 -5.6,21.7 -16.2,37.3 -31.9,46.7 -10.2,6.1 -23,9.2 -38.6,9.2 H 855.3 L 830,486.4 H 755.8 L 820,231.6 h 161.7 c 16.2,0 28,1.8 35.6,5.3 11.5,5.5 17.3,15.6 17.3,30.5 z m -78.8,30 h -78.2 l -8.7,35 h 78.2 z m 261.4,13.5 c 0,5.7 -1.1,12.8 -3.3,21.6 l -16.3,63.7 h -64.5 l 11.7,-45.6 H 1106 l -34.5,135.9 h -66.8 l 50.2,-200 h 66.9 l -3.7,15.6 c 6.9,-10.4 18.2,-15.6 33.9,-15.6 h 35.6 c 19.8,0 29.6,8.1 29.6,24.4 z m 116.4,-92 -12.5,48.1 h -66.8 l 12.5,-48.1 z m -17.4,67.6 -50.1,200 h -66.8 l 50.1,-200 z m 211.1,40 c 0,9.9 -1.8,21.8 -5.3,35.7 l -15.3,60.5 h 13.3 l -16,63.7 h -41.9 c -8.9,0 -16.1,-2.6 -21.6,-7.8 -5.5,-5.2 -8.3,-12.5 -8.3,-21.9 0,-4.3 0.5,-8.6 1.7,-13.1 l 23.6,-93.1 h -61.1 l -34.5,135.9 h -66.8 l 50.2,-200 h 67.2 l -4.8,19.2 c 10.4,-9.5 21.7,-15.3 33.9,-17.4 6,-1.2 18.8,-1.8 38.6,-1.8 15.3,0 26.6,2.6 33.9,7.8 8.7,6.2 13.2,16.9 13.2,32.3 z m 182.6,-40 -16,64.1 h -64.2 l -18.2,71.8 h 65.8 l -16,64.1 h -85.8 c -12.2,0 -21.2,-1.8 -27,-5.3 -7.5,-4.7 -11.3,-12.9 -11.3,-24.7 0,-8.2 1.8,-19.4 5.3,-33.5 l 18.2,-72.4 h -20.9 l 15.9,-64.1 h 20.9 l 17.5,-67.6 h 68.9 l -17.5,67.6 z"
   class="st1"
   inkscape:connector-curvature="0"
   style="fill:#fae013;stroke:#141515;stroke-width:8.50389957;stroke-miterlimit:10" />
</g>
</svg>